<svg xmlns="http://www.w3.org/2000/svg" xmlns:xlink="http://www.w3.org/1999/xlink" version="1.1" x="0px" y="0px" viewBox="0 0 512 640" style="enable-background:new 0 0 512 512;" xml:space="preserve"><path d="M443.2041016,249.1936035l-42.4882812-26.2431641l26.9267578-42.0664062  c1.4960938-2.3378906,1.6738281-5.2851562,0.46875-7.7861328c-1.2060547-2.5009766-3.6220703-4.1982422-6.3837891-4.4833984  l-49.6806641-5.1416016l6.0078125-49.5830002c0.3330078-2.7539062-0.7841797-5.484375-2.9521484-7.2148438  c-2.1679688-1.7314453-5.0771484-2.2138672-7.6894531-1.2773438l-47.0205078,16.8554688l-16.109375-47.2832031  c-0.8945312-2.6279297-3.0888672-4.6035156-5.7949219-5.2197266c-2.7070312-0.6201172-5.5400391,0.2128906-7.4853516,2.1943359  L256,107.5832596l-35.003418-35.6386719c-1.9458008-1.9804688-4.777832-2.8125-7.4848633-2.1943359  c-2.706543,0.6162109-4.8999023,2.5917969-5.7954102,5.2197266l-16.1088867,47.2832031l-47.0195312-16.8554688  c-2.6113281-0.9375-5.5219727-0.4521484-7.6899414,1.2773438c-2.168457,1.7304688-3.2851562,4.4609375-2.9516602,7.2148438  l6.0068359,49.5820236l-49.6811523,5.1416016c-2.7612305,0.2851562-5.1772461,1.9824219-6.3828125,4.4833984  s-1.0283203,5.4482422,0.46875,7.7861328l26.9272461,42.0683594l-42.4892578,26.2421875  C66.4365234,250.6516113,65,253.2268066,65,256.0002441s1.4365234,5.3486328,3.7958984,6.8066406l42.4892578,26.2431641  l-26.9272461,42.0664062c-1.4970703,2.3378906-1.6743164,5.2851562-0.46875,7.7861328s3.621582,4.1982422,6.3828125,4.4833984  l49.6811523,5.1416016l-6.0073242,49.5830078c-0.3334961,2.7539062,0.7832031,5.484375,2.9516602,7.2148438  s5.0786133,2.2148438,7.6899414,1.2773438l47.0200195-16.8554688l16.1088867,47.2832031  c0.8955078,2.6279297,3.0888672,4.6035156,5.7954102,5.2197266c2.7075195,0.6191406,5.5405273-0.2138672,7.4848633-2.1943359  L256,404.4172363l35.0029297,35.6386719c1.5214844,1.5488281,3.5859375,2.3945312,5.7080078,2.3945312  c0.5908203,0,1.1875-0.0654297,1.7773438-0.2001953c2.7060547-0.6162109,4.9003906-2.5917969,5.7949219-5.2197266  l16.109375-47.2832031l47.0195312,16.8554688c2.6123047,0.9384766,5.5214844,0.453125,7.6894531-1.2773438  s3.2851562-4.4609375,2.9521484-7.2148438l-6.0068359-49.5820312l49.6806641-5.1416016  c2.7617188-0.2851562,5.1777344-1.9824219,6.3828125-4.4833984c1.2060547-2.5009766,1.0283203-5.4482422-0.4677734-7.7861328  l-26.9267578-42.0683594l42.4882812-26.2421875C445.5634766,261.348877,447,258.7736816,447,256.0002441  S445.5634766,250.6516113,443.2041016,249.1936035z M385.390625,279.708252  c-1.8242188,1.1269531-3.1191406,2.9384766-3.5957031,5.0292969c-0.4765625,2.0898438-0.09375,4.2841797,1.0615234,6.0898438  l24.3115234,37.9814453l-44.8652344,4.6435547c-2.1347656,0.2207031-4.0908203,1.2900391-5.4296875,2.9667969  c-1.3388672,1.6777344-1.9472656,3.8222656-1.6894531,5.9521484l5.4267578,44.796875l-42.4697266-15.2246094  c-2.0175781-0.7255859-4.2412109-0.6074219-6.1728516,0.3232422c-1.9306641,0.9306641-3.4072266,2.5976562-4.0986328,4.6269531  l-14.5449219,42.6914062l-31.6162109-32.1904297c-1.5048828-1.5322266-3.5615234-2.3945312-5.7080078-2.3945312  s-4.203125,0.8623047-5.7075195,2.3945312l-31.6166992,32.1904297l-14.5444336-42.6914062  c-0.6914062-2.0292969-2.168457-3.6962891-4.0996094-4.6269531c-1.9301758-0.9306641-4.1557617-1.0488281-6.1728516-0.3232422  l-42.4702148,15.2246094l5.4272461-44.7978516c0.2583008-2.1298828-0.3505859-4.2744141-1.6889648-5.9521484  c-1.3383789-1.6767578-3.2949219-2.7460938-5.4291992-2.9667969l-44.8652344-4.6435547l24.3110352-37.9794922  c1.1557617-1.8056641,1.5385742-3.9990234,1.0620117-6.0898438c-0.4760742-2.0908203-1.7714844-3.9023438-3.5957031-5.0292969  l-38.3862305-23.7089844l38.3862305-23.7080078c1.8237305-1.1269531,3.1196289-2.9384766,3.5957031-5.0292969  c0.4765625-2.0898438,0.09375-4.2841797-1.0620117-6.0898438l-24.3110352-37.9814453l44.8652344-4.6435547  c2.1342773-0.2207031,4.0908203-1.2900391,5.4291992-2.9667969c1.3383789-1.6777344,1.9472656-3.8222656,1.6889648-5.9521484  l-5.4272461-44.7968674l42.4702148,15.2246017c2.0175781,0.7246094,4.2416992,0.6083984,6.1728516-0.3232422  c1.9311523-0.9306641,3.4082031-2.5976562,4.0996094-4.6269531l14.5444336-42.6913986l31.6166992,32.1904297  c1.5043945,1.5322266,3.5610352,2.3945312,5.7075195,2.3945312s4.203125-0.8623047,5.7080078-2.3945312l31.6162109-32.1904297  l14.5449219,42.6913986c0.6914062,2.0292969,2.1679688,3.6962891,4.0986328,4.6269531  c1.9326172,0.9316406,4.15625,1.0498047,6.1728516,0.3232422l42.4707031-15.2246017l-5.4277344,44.7978439  c-0.2578125,2.1298828,0.3505859,4.2744141,1.6894531,5.9521484c1.3388672,1.6767578,3.2949219,2.7460938,5.4296875,2.9667969  l44.8652344,4.6435547l-24.3115234,37.9794922c-1.1552734,1.8056641-1.5380859,4-1.0615234,6.0898438  c0.4765625,2.0908203,1.7714844,3.9023438,3.5957031,5.0292969l38.3857422,23.7089844L385.390625,279.708252z"/><path d="M256,157c-54.5888672,0-99,44.4111328-99,99s44.4111328,99,99,99s99-44.4111328,99-99S310.5888672,157,256,157z M256,339  c-45.7666016,0-83-37.2333984-83-83s37.2333984-83,83-83s83,37.2333984,83,83S301.7666016,339,256,339z"/><text x="0" y="527" fill="#000000" font-size="5px" font-weight="bold" font-family="'Helvetica Neue', Helvetica, Arial-Unicode, Arial, Sans-serif">Created by boggu</text><text x="0" y="532" fill="#000000" font-size="5px" font-weight="bold" font-family="'Helvetica Neue', Helvetica, Arial-Unicode, Arial, Sans-serif">from the Noun Project</text></svg>