<svg xmlns="http://www.w3.org/2000/svg" xmlns:xlink="http://www.w3.org/1999/xlink" xml:space="preserve" version="1.1" style="shape-rendering:geometricPrecision;text-rendering:geometricPrecision;image-rendering:optimizeQuality;" viewBox="0 0 333 416.25" x="0px" y="0px" fill-rule="evenodd" clip-rule="evenodd"><defs><style type="text/css">
   
    .fil0 {fill:black}
   
  </style></defs><g><path class="fil0" d="M171 132c0,92 80,121 135,131 -29,42 -68,62 -120,62 -87,0 -158,-71 -158,-158 0,-46 19,-88 53,-118 45,-41 94,-50 149,-32 -29,32 -59,63 -59,115zm-16 0c0,73 54,133 125,141 -25,22 -58,36 -94,36 -78,0 -142,-64 -142,-142 0,-85 74,-150 158,-141 -29,26 -47,64 -47,106z"/></g><text x="0" y="348" fill="#000000" font-size="5px" font-weight="bold" font-family="'Helvetica Neue', Helvetica, Arial-Unicode, Arial, Sans-serif">Created by Richard</text><text x="0" y="353" fill="#000000" font-size="5px" font-weight="bold" font-family="'Helvetica Neue', Helvetica, Arial-Unicode, Arial, Sans-serif">from the Noun Project</text></svg>